<svg id="Layer_1" data-name="Layer 1" xmlns="http://www.w3.org/2000/svg" viewBox="0 0 40 40"><defs><style>.cls-1{fill:#fff}</style></defs><path class="cls-1" d="M21.45 29.62c-.06-.52-.12-1-.16-1.46a117.27 117.27 0 0 1-.12-12.24c0-1.27.09-2.54.14-3.82l.08-2.22c0-.43.06-.88.11-1.33a8.4 8.4 0 0 0-.25-4 2.82 2.82 0 0 0-.33-.6 2.06 2.06 0 0 0-1.46-.86c-1.77-.22-3.95 1.5-4.36 1.85l-.27.24a2 2 0 0 1-.67.47 1.94 1.94 0 0 1-.63 0 4.64 4.64 0 0 0-.52 0C10.9 5.71 10 8 9.51 9.8a1.94 1.94 0 0 1-.31.73 2 2 0 0 1-.61.41l-.3.16a6.1 6.1 0 0 0-2.44 3.2.5.5 0 0 0-.06.15q-.2.5-.39 1c-.73 2.06-1.33 4.07-.67 6 .1.29.22.57.34.85a5.06 5.06 0 0 1 .49 1.62 7.79 7.79 0 0 1 0 1 4.43 4.43 0 0 0 .29 2.31A4.86 4.86 0 0 0 7 28.59a3.05 3.05 0 0 1 1 1.29 3.39 3.39 0 0 1 0 1.47 2.66 2.66 0 0 0 .83 2.9 7.12 7.12 0 0 0 2.34 1.16 11.54 11.54 0 0 1 1.22.48 5.53 5.53 0 0 1 1.07.75 5.34 5.34 0 0 0 1.61 1 5.75 5.75 0 0 0 1.83.36 5.46 5.46 0 0 0 2.1-.4c3.25-1.36 2.79-5.18 2.45-7.98zm-1.05 5.11c0-.15 0-.3-.05-.45-.13-1.22-.31-2.89-1.66-3.62a11.74 11.74 0 0 0-1.18-.53 6.58 6.58 0 0 1-1.51-.79 2.51 2.51 0 0 1-.84-1.7 7.15 7.15 0 0 0-.29-1.06.49.49 0 0 0-.92.35 6.27 6.27 0 0 1 .25.92 3.43 3.43 0 0 0 1.2 2.27 7.41 7.41 0 0 0 1.78.92 10.69 10.69 0 0 1 1.09.49c.9.48 1 1.75 1.15 2.86a5.32 5.32 0 0 0 .31 1.54 3.14 3.14 0 0 1-1.09.74 4.68 4.68 0 0 1-3.28.05 4.52 4.52 0 0 1-1.36-.85 6.36 6.36 0 0 0-1.27-.87 12.28 12.28 0 0 0-1.33-.53 6.28 6.28 0 0 1-2-1 1.49 1.49 0 0 1-.55-1.57h.36c.35 0 .73.07 1.1.07a2.5 2.5 0 0 0 2.07-.8.5.5 0 0 0-.78-.64c-.44.54-1.43.45-2.29.36H9a3.43 3.43 0 0 0-.07-1.28 3.83 3.83 0 0 0-1.26-1.76 4.06 4.06 0 0 1-.91-1.07A3.62 3.62 0 0 1 6.55 25a3.93 3.93 0 0 0 1-1.34c.45-.76 1-1.71 1.67-1.8.41-.05.91.21 1.49.79a.5.5 0 0 0 .71-.71 2.85 2.85 0 0 0-2.33-1.08C8 21 7.29 22.15 6.73 23.1l-.22.36A7.06 7.06 0 0 0 6 21.92c-.11-.26-.22-.51-.31-.78-.56-1.62 0-3.44.67-5.33l.28-.76a1.44 1.44 0 0 1 .71.6 7.06 7.06 0 0 1 .53 1c.11.25.22.5.35.74a5 5 0 0 0 4.29 2.81 4 4 0 0 0 1.27-.2.5.5 0 1 0-.32-1 3.74 3.74 0 0 1-4.36-2c-.12-.22-.22-.45-.32-.68a8 8 0 0 0-.61-1.18 2.39 2.39 0 0 0-1.16-1A4.64 4.64 0 0 1 8.8 12l.26-.14a2.85 2.85 0 0 0 .91-.65 2.84 2.84 0 0 0 .51-1.11c.53-1.89 1.18-3 2-3.3a3.83 3.83 0 0 1 1.16 1.52v.7a6.83 6.83 0 0 0 0 1 4.09 4.09 0 0 0 2.42 3.21.5.5 0 0 0 .45-.9 3.11 3.11 0 0 1-1.87-2.41 6 6 0 0 1 0-.81v-.8a3.17 3.17 0 0 0-.86-1.58 2.08 2.08 0 0 0 .64-.07 2.74 2.74 0 0 0 1.06-.69l.23-.21c1.08-.9 2.6-1.75 3.6-1.63a1.06 1.06 0 0 1 .77.45v.05a.48.48 0 0 0 0 .11 3.29 3.29 0 0 1-1.06 2.39 13.86 13.86 0 0 1-2.64 2 .54.54 0 0 0 .57.91 14.67 14.67 0 0 0 2.84-2.12 5.56 5.56 0 0 0 .76-1c0 .54-.06 1.09-.11 1.64s-.09.94-.11 1.4l-.08 2.22c0 .67 0 1.34-.07 2a3.66 3.66 0 0 0-2.38.36 6.67 6.67 0 0 0-1.42 1.12c-.2.19-.41.39-.63.57s-1.12.85-1.86.57a.5.5 0 0 0-.35.94 2.12 2.12 0 0 0 .75.13 3.39 3.39 0 0 0 2.1-.87c.24-.19.46-.41.68-.62a5.82 5.82 0 0 1 1.2-1 2.65 2.65 0 0 1 1.86-.23v.8c0 1.08-.06 2.23-.08 3.41-1.37 0-1.88 1.17-2.25 2.08a4.24 4.24 0 0 1-.59 1.13c-.63.72-1.8.75-2.85.74a.5.5 0 1 0 0 1h.3A4.2 4.2 0 0 0 18 23.18a5 5 0 0 0 .76-1.42c.42-1 .69-1.49 1.31-1.47 0 2.54 0 5.25.22 7.94 0 .46.1 1 .16 1.51a12 12 0 0 1-.06 4.99z"/><path class="cls-1" d="M12.9 12.15a.5.5 0 1 0-.75.67.47.47 0 0 1 .13.35.3.3 0 0 1-.13.22 2 2 0 0 1-.57.23l-.34.11a1.48 1.48 0 0 0-1 .82 1.2 1.2 0 0 0 .13 1 .5.5 0 1 0 .88-.49.32.32 0 0 1-.06-.19s.11-.13.36-.23l.28-.09a2.81 2.81 0 0 0 .87-.38 1.3 1.3 0 0 0 .54-.92 1.47 1.47 0 0 0-.34-1.1zm-1.4 12.67a.5.5 0 0 0-.68.2 4.39 4.39 0 0 0-.38 2 4.77 4.77 0 0 1-.18 1.46.5.5 0 1 0 .95.35 5.58 5.58 0 0 0 .24-1.78 3.64 3.64 0 0 1 .25-1.58.5.5 0 0 0-.2-.65zm16.28 6.94H23a14.66 14.66 0 0 1 .05 2h4.71a.86.86 0 0 0 .86-.86v-.25a.86.86 0 0 0-.84-.89zM22.88 6.8c-.05.5-.1 1-.12 1.52v.28H27a.84.84 0 0 0 .84-.84v-.19a.84.84 0 0 0-.84-.84h-4.12zm-.21 3.95c0 .47 0 .95-.05 1.42h7.53a.88.88 0 0 0 .85-.87v-.12a.88.88 0 0 0-.87-.87h-7.45zm-.16 4.17v.83h9.19a.91.91 0 0 0 .9-.9v-.06a.91.91 0 0 0-.9-.9h-9.15c-.01.34-.03.69-.04 1.03zm6.85 13.27h-6.72v.2c0 .5.1 1.06.17 1.65h6.53a.87.87 0 0 0 .86-.86v-.14a.87.87 0 0 0-.84-.85zm1.55-3.58h-8.45q0 .93.08 1.87h8.37a.91.91 0 0 0 .9-.9v-.06a.91.91 0 0 0-.9-.91zM34 17.46H22.45v1.87H34a.93.93 0 1 0 0-1.87zM33.25 21H22.41v1.87h10.84a.93.93 0 1 0 0-1.87z"/></svg>